<svg id="log_out" data-name="log out" xmlns="http://www.w3.org/2000/svg" width="7.689" height="10" viewBox="0 0 7.689 10">
  <path id="패스_4837" data-name="패스 4837" d="M250.165,61.971a.349.349,0,0,1-.35-.349v-.777a.35.35,0,0,1,.7,0v.777a.349.349,0,0,1-.35.349" transform="translate(-246.32 -53.447)" fill="#231f20"/>
  <path id="패스_4839" data-name="패스 4839" d="M225.962,38.128h-4.6a1.544,1.544,0,0,1-1.543-1.543V33.38a1.545,1.545,0,0,1,1.543-1.543h4.6A1.545,1.545,0,0,1,227.5,33.38v3.205a1.545,1.545,0,0,1-1.543,1.543m-4.6-5.592a.845.845,0,0,0-.844.844v3.205a.845.845,0,0,0,.844.844h4.6a.845.845,0,0,0,.844-.844V33.38a.845.845,0,0,0-.844-.844Z" transform="translate(-219.816 -28.128)" fill="#231f20"/>
  <path id="패스_4840" data-name="패스 4840" d="M233.547,4.289a.349.349,0,0,1-.349-.349V2.285a2.285,2.285,0,1,1,4.571,0v.576a.349.349,0,1,1-.7,0V2.285a1.586,1.586,0,1,0-3.173,0V3.94a.349.349,0,0,1-.35.349" transform="translate(-231.638)" fill="#231f20"/>
  <path id="패스_4841" data-name="패스 4841" d="M244.905,46.352a1.043,1.043,0,1,0,1.043,1.043,1.044,1.044,0,0,0-1.043-1.043m0,1.387a.344.344,0,1,1,.344-.344.344.344,0,0,1-.344.344" transform="translate(-241.061 -40.952)" fill="#231f20"/>
</svg>
