<svg id="log_in" data-name="log in" xmlns="http://www.w3.org/2000/svg" width="10" height="10" viewBox="0 0 10 10">
  <rect id="area" width="10" height="10" fill="none"/>
  <g id="그룹_3848" data-name="그룹 3848" transform="translate(0.9 0.417)">
    <path id="패스_4834" data-name="패스 4834" d="M6.548,38.127h-4.9A1.6,1.6,0,0,1,0,36.584v-3.2a1.6,1.6,0,0,1,1.644-1.543h4.9A1.6,1.6,0,0,1,8.192,33.38v3.2a1.6,1.6,0,0,1-1.644,1.543m-4.9-5.591a.874.874,0,0,0-.9.844v3.2a.874.874,0,0,0,.9.844h4.9a.874.874,0,0,0,.9-.844v-3.2a.874.874,0,0,0-.9-.844Z" transform="translate(0 -28.544)"/>
    <path id="패스_4835" data-name="패스 4835" d="M17.88,9.178a.372.372,0,0,1-.372-.372V7.7a1.69,1.69,0,0,0-3.38,0v1.11a.372.372,0,0,1-.745,0V7.7a2.435,2.435,0,0,1,4.87,0v1.11a.372.372,0,0,1-.372.372" transform="translate(-11.721 -5.261)"/>
    <path id="패스_12154" data-name="패스 12154" d="M250.187,61.971a.361.361,0,0,1-.372-.35v-.777a.373.373,0,0,1,.745,0v.777a.361.361,0,0,1-.372.35" transform="translate(-246.092 -53.864)"/>
    <path id="패스_12155" data-name="패스 12155" d="M244.973,46.352a1.045,1.045,0,1,0,1.111,1.043,1.08,1.08,0,0,0-1.111-1.043m0,1.387a.345.345,0,1,1,.366-.344.356.356,0,0,1-.366.344" transform="translate(-240.877 -41.369)"/>
  </g>
</svg>
